<?xml version="1.0" encoding="UTF-8"?>
<svg width="24px" height="24px" viewBox="0 0 24 24" version="1.1" xmlns="http://www.w3.org/2000/svg" xmlns:xlink="http://www.w3.org/1999/xlink">
    <title>编组</title>
    <defs>
        <linearGradient x1="91.8755667%" y1="29.2237791%" x2="5.59359385%" y2="68.1807094%" id="linearGradient-1">
            <stop stop-color="#201C1B" offset="0%"></stop>
            <stop stop-color="#77390D" offset="36%"></stop>
            <stop stop-color="#EA8101" offset="67%"></stop>
            <stop stop-color="#F4B852" offset="100%"></stop>
        </linearGradient>
        <linearGradient x1="10.5140624%" y1="63.2041705%" x2="110.78862%" y2="37.005844%" id="linearGradient-2">
            <stop stop-color="#1F1D1C" offset="0%"></stop>
            <stop stop-color="#77390D" offset="37%"></stop>
            <stop stop-color="#EA8101" offset="67%"></stop>
            <stop stop-color="#F4FB52" offset="100%"></stop>
        </linearGradient>
        <radialGradient cx="50%" cy="50.0450988%" fx="50%" fy="50.0450988%" r="50.2115849%" gradientTransform="translate(0.5, 0.5005), scale(0.9958, 1), translate(-0.5, -0.5005)" id="radialGradient-3">
            <stop stop-color="#F4B852" offset="0%"></stop>
            <stop stop-color="#EA8101" offset="33%"></stop>
            <stop stop-color="#77390D" offset="64%"></stop>
            <stop stop-color="#211C1D" offset="100%"></stop>
        </radialGradient>
    </defs>
    <g id="页面-1" stroke="none" stroke-width="1" fill="none" fill-rule="evenodd">
        <g id="编组">
            <rect id="矩形" x="0" y="0" width="24" height="24"></rect>
            <g id="编组-33" transform="translate(2.553, 0)" fill-rule="nonzero">
                <path d="M13.3258219,2.15921017 L18.2718888,7.03736673 C18.6929143,7.45171721 18.9001302,7.87098035 18.8939024,8.29346857 C18.8870912,8.71595681 18.7059532,9.10105641 18.3518637,9.45041729 C17.9814383,9.81605377 17.5816383,10.0013096 17.1540934,10.0094098 C16.7265485,10.015935 16.3022634,9.81117865 15.8812379,9.39682817 L10.8225987,4.40815937 C10.2481802,3.84106661 9.69335714,3.43968403 9.15975946,3.20406415 C8.62612482,2.96844427 8.06478226,2.9310706 7.47732475,3.09356695 C6.88823737,3.25443948 6.2567363,3.66880496 5.57952474,4.33503208 C4.64612702,5.25639844 4.2006165,6.12087552 4.24632698,6.92850082 C4.29200042,7.73608862 4.75543953,8.57457737 5.63501445,9.44070449 L10.7344746,14.4715996 C11.1603895,14.8908252 11.3692354,15.3100509 11.3627159,15.7260515 C11.3561964,16.1436645 11.1734286,16.5288015 10.8127824,16.8846502 C10.4538033,17.2388863 10.057263,17.4241421 9.62645834,17.4387675 C9.1956537,17.4533931 8.7664789,17.2502867 8.34219378,16.8310235 L3.3961268,11.9528707 C2.5916371,11.1599084 2.01070279,10.4091723 1.65333496,9.70066265 C1.29596344,8.99219049 1.1621547,8.19109041 1.25516849,7.29736238 C1.33839195,6.5320009 1.58479516,5.7910152 1.99601912,5.07279269 C2.40560581,4.35453269 2.99306701,3.62005719 3.75514301,2.86769737 C4.66242574,1.97234182 5.52892464,1.28660658 6.3546397,0.808864121 C7.1787249,0.331125032 7.97665807,0.0662553601 8.74688346,0.0110066043 C9.51873866,-0.0442422263 10.2791848,0.108504558 11.0314445,0.469245984 C11.7837413,0.829988537 12.5474471,1.39222865 13.324192,2.15921017 L13.3258219,2.15921017 Z" id="路径" fill="url(#linearGradient-1)"></path>
                <path d="M5.56644872,21.842418 L0.622019026,16.9642652 C0.201007319,16.5482647 -0.00623501358,16.1306516 0,15.7081634 C0.00681962649,15.2856751 0.18795279,14.9005755 0.542059017,14.5511771 C0.912484332,14.1855782 1.31228437,14.0003223 1.73982187,13.9921846 C2.16736306,13.9856969 2.5916371,14.1888033 3.01265141,14.6048038 L8.06967186,19.5934726 C8.64572026,20.1605653 9.19891346,20.5619404 9.73251114,20.7975603 C10.2661458,21.0331802 10.8274883,21.0689188 11.4165757,20.9080387 C12.0056631,20.7471962 12.6371642,20.3328083 13.3143757,19.6649498 C14.2478105,18.7435835 14.6932839,17.8791063 14.6476105,17.0715186 C14.6019,16.2638933 14.1384609,15.4254045 13.2589231,14.5577023 L10.5419275,11.9008566 C10.1160124,11.481631 9.90712962,11.0623678 9.91364906,10.6464048 C9.92016858,10.2287917 10.1029364,9.84365465 10.4635825,9.48780601 C10.8225987,9.13353241 11.2191391,8.94831409 11.6499067,8.93368865 C12.0807113,8.91906321 12.509886,9.12216953 12.9341712,9.54143265 L15.4961438,12.0454986 C16.3006335,12.838461 16.8815715,13.589197 17.2389579,14.2977067 C17.5963071,15.0061789 17.7301048,15.807279 17.637091,16.701007 C17.5538935,17.4663684 17.3074866,18.2073542 16.8962403,18.9256142 C16.4866611,19.6438367 15.8992035,20.3783347 15.1371275,21.1306832 C14.2298448,22.0260238 13.3633459,22.7117703 12.5376309,23.1894977 C11.7119159,23.6672627 10.9139827,23.933746 10.1421275,23.9889852 C9.37027218,24.044262 8.6098261,23.8914822 7.85756634,23.5307584 C7.10526956,23.1699971 6.3415637,22.6077795 5.56481885,21.8408055 L5.56644872,21.842418 Z" id="路径" fill="url(#linearGradient-2)"></path>
                <path d="M8.65060986,9.25544873 C9.65368458,9.25544873 10.4668423,8.44572337 10.4668423,7.44684206 C10.4668423,6.44799828 9.65368458,5.63827291 8.65060986,5.63827291 C7.64753519,5.63827291 6.83437753,6.44799828 6.83437753,7.44684206 C6.83437753,8.44572337 7.64753519,9.25544873 8.65060986,9.25544873 Z" id="路径" fill="url(#radialGradient-3)"></path>
            </g>
        </g>
    </g>
</svg>